<svg id="svg" version="1.1" xmlns="http://www.w3.org/2000/svg" xmlns:xlink="http://www.w3.org/1999/xlink" width="400" height="400" viewBox="0, 0, 400,400"><g id="svgg"><path id="path0" d="M197.400 84.800 C 197.264 85.020,196.184 85.200,195.000 85.200 C 193.816 85.200,192.736 85.380,192.600 85.600 C 192.464 85.820,191.823 86.000,191.176 86.000 C 190.529 86.000,190.000 86.180,190.000 86.400 C 190.000 86.620,189.640 86.800,189.200 86.800 C 188.760 86.800,188.400 86.980,188.400 87.200 C 188.400 87.420,188.040 87.600,187.600 87.600 C 187.160 87.600,186.800 87.780,186.800 88.000 C 186.800 88.220,186.512 88.400,186.160 88.400 C 185.809 88.400,185.017 88.940,184.400 89.600 C 183.783 90.260,183.061 90.800,182.793 90.800 C 182.255 90.800,179.600 93.552,179.600 94.110 C 179.600 94.304,178.880 95.154,178.000 96.000 C 177.120 96.846,176.400 97.731,176.400 97.968 C 176.400 98.205,175.680 99.141,174.800 100.048 C 173.920 100.955,173.200 101.873,173.200 102.088 C 173.200 102.303,172.660 102.983,172.000 103.600 C 171.340 104.217,170.800 104.919,170.800 105.160 C 170.800 105.402,170.080 106.341,169.200 107.248 C 168.320 108.155,167.600 109.073,167.600 109.288 C 167.600 109.503,167.060 110.183,166.400 110.800 C 165.740 111.417,165.200 112.119,165.200 112.360 C 165.200 112.602,164.480 113.541,163.600 114.448 C 162.720 115.355,162.000 116.273,162.000 116.488 C 162.000 116.703,161.460 117.383,160.800 118.000 C 160.140 118.617,159.600 119.333,159.600 119.592 C 159.600 119.851,158.880 120.754,158.000 121.600 C 157.120 122.446,156.400 123.331,156.400 123.568 C 156.400 123.805,155.680 124.741,154.800 125.648 C 153.920 126.555,153.200 127.473,153.200 127.688 C 153.200 127.903,152.660 128.583,152.000 129.200 C 151.340 129.817,150.800 130.547,150.800 130.822 C 150.800 131.098,150.080 132.009,149.200 132.846 C 148.320 133.683,147.600 134.569,147.600 134.815 C 147.600 135.061,146.880 135.954,146.000 136.800 C 145.120 137.646,144.400 138.531,144.400 138.768 C 144.400 139.005,143.680 139.941,142.800 140.848 C 141.920 141.755,141.200 142.673,141.200 142.888 C 141.200 143.103,140.660 143.783,140.000 144.400 C 139.340 145.017,138.800 145.719,138.800 145.960 C 138.800 146.202,138.080 147.141,137.200 148.048 C 136.320 148.955,135.600 149.873,135.600 150.088 C 135.600 150.303,135.060 150.983,134.400 151.600 C 133.293 152.634,132.839 153.600,133.460 153.600 C 133.775 153.600,135.869 151.369,137.090 149.732 C 137.579 149.076,138.389 148.094,138.890 147.549 C 139.390 147.004,140.322 145.848,140.960 144.979 C 141.598 144.111,142.318 143.220,142.560 143.000 C 142.802 142.780,143.492 141.941,144.094 141.135 C 144.696 140.329,145.419 139.429,145.701 139.135 C 145.984 138.841,147.065 137.430,148.105 136.000 C 149.144 134.570,150.240 133.130,150.540 132.800 C 150.840 132.470,151.585 131.435,152.196 130.500 C 152.807 129.565,153.446 128.800,153.617 128.800 C 153.788 128.800,154.641 127.675,155.511 126.300 C 156.382 124.925,157.883 122.962,158.847 121.937 C 161.283 119.350,162.800 117.379,162.800 116.803 C 162.800 116.535,163.270 115.945,163.845 115.493 C 164.420 115.041,165.227 114.115,165.640 113.435 C 166.052 112.756,166.933 111.570,167.599 110.800 C 170.807 107.090,171.924 105.690,172.706 104.400 C 173.173 103.630,173.925 102.773,174.377 102.497 C 174.830 102.220,175.200 101.761,175.200 101.478 C 175.200 101.194,175.920 100.259,176.800 99.400 C 177.680 98.541,178.400 97.644,178.400 97.408 C 178.400 96.457,184.690 90.535,187.128 89.193 C 188.518 88.427,189.900 87.575,190.199 87.300 C 190.498 87.025,191.216 86.800,191.794 86.800 C 193.050 86.800,196.346 86.081,197.228 85.615 C 198.042 85.185,200.000 85.560,200.002 86.147 C 200.003 86.396,200.048 139.970,200.102 205.200 L 200.200 323.800 202.275 324.009 C 211.004 324.887,192.664 325.199,132.400 325.197 C 86.397 325.195,80.874 325.129,79.800 324.565 C 79.091 324.193,78.082 324.017,77.334 324.137 C 76.579 324.257,75.773 324.114,75.334 323.782 C 74.930 323.476,74.206 323.220,73.724 323.213 C 73.242 323.206,72.736 323.020,72.600 322.800 C 72.464 322.580,72.001 322.400,71.571 322.400 C 71.141 322.400,70.477 322.243,70.095 322.052 C 69.713 321.861,68.590 321.317,67.600 320.843 C 63.708 318.981,61.237 317.502,59.320 315.887 C 58.219 314.959,56.881 313.840,56.347 313.400 C 53.155 310.772,46.400 300.210,46.400 297.849 C 46.400 297.518,46.220 297.136,46.000 297.000 C 45.780 296.864,45.600 296.234,45.600 295.600 C 45.600 294.966,45.420 294.336,45.200 294.200 C 44.980 294.064,44.800 293.451,44.800 292.838 C 44.800 292.225,44.565 291.200,44.278 290.561 C 43.410 288.628,44.238 273.194,45.244 272.573 C 45.440 272.452,45.600 271.911,45.600 271.371 C 45.600 270.831,45.759 270.077,45.953 269.695 C 46.148 269.313,46.488 268.550,46.710 268.000 C 48.617 263.271,50.747 259.665,53.678 256.201 C 54.051 255.761,54.771 254.826,55.278 254.124 C 57.634 250.862,60.349 247.345,61.900 245.546 C 62.835 244.461,63.600 243.318,63.600 243.007 C 63.600 242.696,64.218 241.969,64.974 241.392 C 65.730 240.816,66.461 239.862,66.598 239.272 C 66.735 238.682,67.421 237.831,68.123 237.380 C 68.839 236.920,69.352 236.278,69.291 235.918 C 69.232 235.566,69.907 234.658,70.791 233.900 C 71.676 233.143,72.400 232.315,72.400 232.061 C 72.400 231.807,73.075 230.910,73.900 230.068 C 75.320 228.619,76.795 226.809,80.000 222.581 C 80.770 221.565,81.985 220.084,82.700 219.289 C 83.415 218.494,84.000 217.674,84.000 217.467 C 84.000 217.259,84.675 216.307,85.500 215.350 C 88.752 211.579,89.600 210.485,89.600 210.061 C 89.600 209.818,90.230 209.046,91.000 208.345 C 91.815 207.603,92.400 206.692,92.400 206.163 C 92.400 205.627,92.706 205.157,93.147 205.017 C 94.369 204.629,95.142 203.496,94.795 202.600 C 94.492 201.817,94.479 201.816,94.172 202.572 C 94.000 202.997,93.171 204.054,92.330 204.920 C 91.488 205.787,90.800 206.673,90.800 206.888 C 90.800 207.103,90.260 207.783,89.600 208.400 C 88.940 209.017,88.400 209.733,88.400 209.992 C 88.400 210.251,87.680 211.154,86.800 212.000 C 85.920 212.846,85.200 213.731,85.200 213.968 C 85.200 214.205,84.480 215.141,83.600 216.048 C 82.720 216.955,82.000 217.873,82.000 218.088 C 82.000 218.303,81.460 218.983,80.800 219.600 C 80.140 220.217,79.600 220.919,79.600 221.160 C 79.600 221.402,78.880 222.341,78.000 223.248 C 77.120 224.155,76.400 225.073,76.400 225.288 C 76.400 225.503,75.860 226.183,75.200 226.800 C 74.540 227.417,74.000 228.081,74.000 228.276 C 74.000 228.472,73.280 229.428,72.400 230.400 C 71.520 231.372,70.800 232.328,70.800 232.524 C 70.800 232.719,70.260 233.383,69.600 234.000 C 68.940 234.617,68.400 235.319,68.400 235.560 C 68.400 235.802,67.680 236.741,66.800 237.648 C 65.920 238.555,65.200 239.455,65.200 239.648 C 65.200 239.841,64.480 240.741,63.600 241.648 C 62.720 242.555,62.000 243.473,62.000 243.688 C 62.000 243.903,61.460 244.583,60.800 245.200 C 60.140 245.817,59.600 246.533,59.600 246.792 C 59.600 247.051,58.880 247.954,58.000 248.800 C 57.120 249.646,56.400 250.531,56.400 250.768 C 56.400 251.005,55.680 251.941,54.800 252.848 C 53.920 253.755,53.200 254.673,53.200 254.888 C 53.200 255.103,52.660 255.783,52.000 256.400 C 51.340 257.017,50.800 257.769,50.800 258.072 C 50.800 258.375,50.440 258.883,50.000 259.200 C 49.560 259.517,49.200 260.057,49.200 260.400 C 49.200 260.743,48.840 261.283,48.400 261.600 C 47.960 261.917,47.600 262.497,47.600 262.888 C 47.600 263.280,47.420 263.600,47.200 263.600 C 46.980 263.600,46.800 263.960,46.800 264.400 C 46.800 264.840,46.620 265.200,46.400 265.200 C 46.180 265.200,46.000 265.549,46.000 265.976 C 46.000 266.403,45.820 266.864,45.600 267.000 C 45.380 267.136,45.200 267.687,45.200 268.224 C 45.200 268.761,45.020 269.200,44.800 269.200 C 44.580 269.200,44.400 269.740,44.400 270.400 C 44.400 271.060,44.220 271.600,44.000 271.600 C 43.780 271.600,43.600 272.305,43.600 273.167 C 43.600 274.028,43.410 274.797,43.177 274.874 C 42.591 275.070,42.591 291.330,43.177 291.526 C 43.410 291.603,43.600 292.372,43.600 293.233 C 43.600 294.095,43.780 294.800,44.000 294.800 C 44.220 294.800,44.400 295.329,44.400 295.976 C 44.400 296.623,44.580 297.264,44.800 297.400 C 45.020 297.536,45.200 298.087,45.200 298.624 C 45.200 299.161,45.380 299.600,45.600 299.600 C 45.820 299.600,46.000 299.960,46.000 300.400 C 46.000 300.840,46.180 301.200,46.400 301.200 C 46.620 301.200,46.800 301.560,46.800 302.000 C 46.800 302.440,46.980 302.800,47.200 302.800 C 47.420 302.800,47.600 303.160,47.600 303.600 C 47.600 304.040,47.780 304.400,48.000 304.400 C 48.220 304.400,48.400 304.720,48.400 305.112 C 48.400 305.503,48.760 306.083,49.200 306.400 C 49.640 306.717,50.000 307.225,50.000 307.528 C 50.000 307.831,50.540 308.583,51.200 309.200 C 51.860 309.817,52.400 310.495,52.400 310.707 C 52.400 311.220,56.623 315.600,57.117 315.600 C 57.330 315.600,58.245 316.320,59.152 317.200 C 60.059 318.080,60.988 318.800,61.217 318.800 C 61.446 318.800,62.020 319.160,62.492 319.600 C 62.964 320.040,63.587 320.400,63.875 320.400 C 64.164 320.400,64.400 320.580,64.400 320.800 C 64.400 321.020,64.760 321.200,65.200 321.200 C 65.640 321.200,66.000 321.380,66.000 321.600 C 66.000 321.820,66.360 322.000,66.800 322.000 C 67.240 322.000,67.600 322.180,67.600 322.400 C 67.600 322.620,67.949 322.800,68.376 322.800 C 68.803 322.800,69.264 322.980,69.400 323.200 C 69.536 323.420,70.087 323.600,70.624 323.600 C 71.161 323.600,71.600 323.780,71.600 324.000 C 71.600 324.220,72.320 324.400,73.200 324.400 C 74.080 324.400,74.800 324.580,74.800 324.800 C 74.800 325.020,75.509 325.200,76.376 325.200 C 77.243 325.200,78.064 325.380,78.200 325.600 C 78.543 326.155,313.457 326.155,313.800 325.600 C 313.936 325.380,314.937 325.200,316.024 325.200 C 317.111 325.200,318.000 325.020,318.000 324.800 C 318.000 324.580,318.720 324.400,319.600 324.400 C 320.480 324.400,321.200 324.220,321.200 324.000 C 321.200 323.780,321.740 323.600,322.400 323.600 C 323.060 323.600,323.600 323.420,323.600 323.200 C 323.600 322.980,323.960 322.800,324.400 322.800 C 324.840 322.800,325.200 322.620,325.200 322.400 C 325.200 322.180,325.543 322.000,325.962 322.000 C 326.869 322.000,330.000 320.392,330.000 319.926 C 330.000 319.747,330.320 319.600,330.712 319.600 C 331.103 319.600,331.683 319.240,332.000 318.800 C 332.317 318.360,332.815 318.000,333.107 318.000 C 333.768 318.000,342.800 308.924,342.800 308.260 C 342.800 307.994,343.160 307.517,343.600 307.200 C 344.040 306.883,344.400 306.303,344.400 305.912 C 344.400 305.520,344.580 305.200,344.800 305.200 C 345.020 305.200,345.200 304.922,345.200 304.583 C 345.200 304.244,345.560 303.580,346.000 303.108 C 346.440 302.636,346.800 301.833,346.800 301.325 C 346.800 300.816,346.980 300.400,347.200 300.400 C 347.420 300.400,347.600 300.040,347.600 299.600 C 347.600 299.160,347.780 298.800,348.000 298.800 C 348.220 298.800,348.400 298.260,348.400 297.600 C 348.400 296.940,348.580 296.400,348.800 296.400 C 349.020 296.400,349.200 295.860,349.200 295.200 C 349.200 294.540,349.380 294.000,349.600 294.000 C 349.820 294.000,350.000 293.100,350.000 292.000 C 350.000 290.900,350.180 290.000,350.400 290.000 C 350.650 290.000,350.800 287.541,350.800 283.424 C 350.800 279.471,350.640 276.749,350.400 276.600 C 350.180 276.464,350.000 275.564,350.000 274.600 C 350.000 273.636,349.820 272.736,349.600 272.600 C 349.380 272.464,349.200 271.823,349.200 271.176 C 349.200 270.529,349.020 270.000,348.800 270.000 C 348.580 270.000,348.400 269.460,348.400 268.800 C 348.400 268.140,348.220 267.600,348.000 267.600 C 347.780 267.600,347.600 267.240,347.600 266.800 C 347.600 266.360,347.420 266.000,347.200 266.000 C 346.980 266.000,346.800 265.640,346.800 265.200 C 346.800 264.760,346.620 264.400,346.400 264.400 C 346.180 264.400,346.000 264.040,346.000 263.600 C 346.000 263.160,345.820 262.800,345.600 262.800 C 345.380 262.800,345.200 262.480,345.200 262.088 C 345.200 261.697,344.840 261.117,344.400 260.800 C 343.960 260.483,343.600 259.943,343.600 259.600 C 343.600 259.257,343.240 258.717,342.800 258.400 C 342.360 258.083,342.000 257.575,342.000 257.272 C 342.000 256.969,341.460 256.217,340.800 255.600 C 340.140 254.983,339.600 254.263,339.600 254.000 C 339.600 253.737,339.060 253.017,338.400 252.400 C 337.740 251.783,337.200 251.108,337.200 250.899 C 337.200 250.690,336.660 249.954,336.000 249.263 C 335.340 248.572,334.800 247.852,334.800 247.663 C 334.800 247.474,334.260 246.754,333.600 246.063 C 332.940 245.372,332.400 244.652,332.400 244.463 C 332.400 244.274,331.860 243.554,331.200 242.863 C 330.540 242.172,330.000 241.424,330.000 241.200 C 330.000 240.976,329.460 240.228,328.800 239.537 C 328.140 238.846,327.600 238.110,327.600 237.901 C 327.600 237.692,327.060 237.017,326.400 236.400 C 325.740 235.783,325.200 235.031,325.200 234.728 C 325.200 234.425,324.840 233.917,324.400 233.600 C 323.960 233.283,323.600 232.831,323.600 232.596 C 323.600 232.360,322.880 231.372,322.000 230.400 C 321.120 229.428,320.400 228.488,320.400 228.312 C 320.400 228.137,319.860 227.428,319.200 226.737 C 318.540 226.046,318.000 225.310,318.000 225.101 C 318.000 224.892,317.460 224.217,316.800 223.600 C 316.140 222.983,315.600 222.263,315.600 222.000 C 315.600 221.737,315.060 221.017,314.400 220.400 C 313.740 219.783,313.200 219.063,313.200 218.800 C 313.200 218.537,312.660 217.817,312.000 217.200 C 311.340 216.583,310.800 215.863,310.800 215.600 C 310.800 215.337,310.260 214.617,309.600 214.000 C 308.940 213.383,308.400 212.663,308.400 212.400 C 308.400 212.137,307.860 211.417,307.200 210.800 C 306.540 210.183,306.000 209.463,306.000 209.200 C 306.000 208.937,305.460 208.217,304.800 207.600 C 304.140 206.983,303.600 206.308,303.600 206.099 C 303.600 205.890,303.060 205.154,302.400 204.463 C 301.740 203.772,301.200 203.052,301.200 202.863 C 301.200 202.674,300.660 201.954,300.000 201.263 C 299.340 200.572,298.800 199.852,298.800 199.663 C 298.800 199.474,298.260 198.754,297.600 198.063 C 296.940 197.372,296.400 196.624,296.400 196.400 C 296.400 196.176,295.860 195.428,295.200 194.737 C 294.540 194.046,294.000 193.278,294.000 193.029 C 294.000 192.780,293.640 192.317,293.200 192.000 C 292.760 191.683,292.400 191.220,292.400 190.971 C 292.400 190.722,291.860 189.954,291.200 189.263 C 290.540 188.572,290.000 187.852,290.000 187.663 C 290.000 187.474,289.460 186.754,288.800 186.063 C 288.140 185.372,287.600 184.652,287.600 184.463 C 287.600 184.274,287.060 183.554,286.400 182.863 C 285.740 182.172,285.200 181.452,285.200 181.263 C 285.200 181.074,284.660 180.354,284.000 179.663 C 283.340 178.972,282.800 178.263,282.800 178.088 C 282.800 177.912,282.080 176.972,281.200 176.000 C 280.320 175.028,279.600 174.072,279.600 173.876 C 279.600 173.681,279.060 173.017,278.400 172.400 C 277.740 171.783,277.200 171.103,277.200 170.888 C 277.200 170.673,276.480 169.755,275.600 168.848 C 274.720 167.941,274.000 167.011,274.000 166.781 C 274.000 165.584,271.449 163.950,271.064 164.900 C 270.911 165.276,270.756 165.252,270.437 164.800 C 269.848 163.968,269.897 163.585,270.560 163.840 C 271.702 164.278,271.621 163.140,270.430 162.028 C 269.754 161.396,269.200 160.663,269.200 160.400 C 269.200 160.137,268.660 159.417,268.000 158.800 C 267.340 158.183,266.800 157.431,266.800 157.128 C 266.800 156.825,266.440 156.317,266.000 156.000 C 265.560 155.683,265.200 155.220,265.200 154.971 C 265.200 154.722,264.660 153.954,264.000 153.263 C 263.340 152.572,262.800 151.808,262.800 151.564 C 262.800 151.320,262.260 150.617,261.600 150.000 C 260.940 149.383,260.400 148.631,260.400 148.328 C 260.400 148.025,260.040 147.517,259.600 147.200 C 259.160 146.883,258.800 146.420,258.800 146.171 C 258.800 145.922,258.260 145.154,257.600 144.463 C 256.940 143.772,256.400 143.063,256.400 142.888 C 256.400 142.712,255.680 141.772,254.800 140.800 C 253.920 139.828,253.200 138.872,253.200 138.676 C 253.200 138.481,252.660 137.817,252.000 137.200 C 251.340 136.583,250.800 135.863,250.800 135.600 C 250.800 135.337,250.260 134.617,249.600 134.000 C 248.940 133.383,248.400 132.663,248.400 132.400 C 248.400 132.137,247.860 131.417,247.200 130.800 C 246.540 130.183,246.000 129.463,246.000 129.200 C 246.000 128.937,245.460 128.217,244.800 127.600 C 244.140 126.983,243.600 126.308,243.600 126.099 C 243.600 125.890,243.060 125.154,242.400 124.463 C 241.740 123.772,241.200 123.052,241.200 122.863 C 241.200 122.674,240.660 121.954,240.000 121.263 C 239.340 120.572,238.800 119.808,238.800 119.564 C 238.800 119.320,238.260 118.617,237.600 118.000 C 236.940 117.383,236.400 116.708,236.400 116.499 C 236.400 116.290,235.860 115.554,235.200 114.863 C 234.540 114.172,234.000 113.452,234.000 113.263 C 234.000 113.074,233.460 112.354,232.800 111.663 C 232.140 110.972,231.600 110.208,231.600 109.964 C 231.600 109.720,231.060 109.017,230.400 108.400 C 229.740 107.783,229.200 107.063,229.200 106.800 C 229.200 106.537,228.660 105.817,228.000 105.200 C 227.340 104.583,226.800 103.863,226.800 103.600 C 226.800 103.337,226.260 102.617,225.600 102.000 C 224.940 101.383,224.400 100.663,224.400 100.400 C 224.400 100.137,223.860 99.417,223.200 98.800 C 222.540 98.183,222.000 97.463,222.000 97.200 C 222.000 96.937,221.460 96.217,220.800 95.600 C 220.140 94.983,219.600 94.299,219.600 94.080 C 219.600 93.519,216.821 90.800,216.248 90.800 C 215.989 90.800,215.517 90.440,215.200 90.000 C 214.883 89.560,214.343 89.200,214.000 89.200 C 213.657 89.200,213.117 88.840,212.800 88.400 C 212.483 87.960,211.903 87.600,211.512 87.600 C 211.120 87.600,210.800 87.420,210.800 87.200 C 210.800 86.980,210.361 86.800,209.824 86.800 C 209.287 86.800,208.736 86.620,208.600 86.400 C 208.464 86.180,207.823 86.000,207.176 86.000 C 206.529 86.000,206.000 85.820,206.000 85.600 C 206.000 85.371,204.800 85.200,203.200 85.200 C 201.600 85.200,200.400 85.029,200.400 84.800 C 200.400 84.580,199.781 84.400,199.024 84.400 C 198.267 84.400,197.536 84.580,197.400 84.800 M204.000 86.800 C 204.000 87.020,203.561 87.200,203.024 87.200 C 202.487 87.200,201.936 87.020,201.800 86.800 C 201.656 86.567,202.063 86.400,202.776 86.400 C 203.449 86.400,204.000 86.580,204.000 86.800 M226.707 105.600 C 226.982 106.040,227.102 106.400,226.975 106.400 C 226.675 106.400,225.600 105.327,225.600 105.029 C 225.600 104.520,226.238 104.849,226.707 105.600 M229.054 108.597 C 229.382 108.925,229.532 109.386,229.387 109.621 C 229.219 109.893,228.924 109.786,228.574 109.324 C 227.604 108.045,227.961 107.504,229.054 108.597 M231.200 111.800 C 231.200 112.130,231.380 112.400,231.600 112.400 C 231.820 112.400,232.000 112.608,232.000 112.862 C 232.000 113.124,231.654 113.011,231.200 112.600 C 230.336 111.818,230.159 111.200,230.800 111.200 C 231.020 111.200,231.200 111.470,231.200 111.800 M236.000 118.296 C 236.000 119.062,235.281 118.898,234.814 118.026 C 234.211 116.900,234.300 116.731,235.200 117.293 C 235.640 117.568,236.000 118.019,236.000 118.296 M237.120 119.680 C 237.384 119.944,237.600 120.304,237.600 120.480 C 237.600 121.069,236.998 120.808,236.493 120.000 C 235.946 119.124,236.355 118.915,237.120 119.680 M240.800 124.476 C 240.800 125.002,239.891 124.673,239.692 124.075 C 239.594 123.782,239.777 123.693,240.167 123.843 C 240.515 123.976,240.800 124.261,240.800 124.476 M244.967 130.243 C 245.650 130.505,245.849 131.600,245.214 131.600 C 245.002 131.600,244.635 131.240,244.400 130.800 C 243.937 129.935,244.001 129.872,244.967 130.243 M247.203 133.203 C 248.090 133.971,248.110 134.762,247.229 134.218 C 246.792 133.948,245.852 132.400,246.125 132.400 C 246.209 132.400,246.694 132.761,247.203 133.203 M254.676 143.019 C 255.017 143.360,255.179 143.755,255.037 143.897 C 254.894 144.039,254.383 143.761,253.900 143.278 C 253.368 142.745,253.226 142.400,253.540 142.400 C 253.824 142.400,254.336 142.679,254.676 143.019 M257.421 147.112 C 257.205 147.328,256.000 146.188,256.000 145.767 C 256.000 145.607,256.361 145.803,256.802 146.202 C 257.244 146.602,257.522 147.011,257.421 147.112 M262.221 153.512 C 262.005 153.728,260.800 152.588,260.800 152.167 C 260.800 152.007,261.161 152.203,261.602 152.602 C 262.044 153.002,262.322 153.411,262.221 153.512 M131.680 155.030 C 131.174 155.570,130.875 156.198,131.016 156.426 C 131.284 156.859,133.200 155.064,133.200 154.379 C 133.200 153.756,132.656 153.989,131.680 155.030 M264.548 156.078 C 264.784 156.231,264.843 156.491,264.679 156.654 C 264.209 157.124,263.059 155.751,263.426 155.158 C 263.681 154.745,263.784 154.757,263.933 155.220 C 264.036 155.539,264.313 155.925,264.548 156.078 M128.480 159.030 C 127.260 160.331,127.763 161.162,129.042 159.960 C 129.955 159.103,130.339 157.972,129.700 158.024 C 129.535 158.038,128.986 158.491,128.480 159.030 M267.904 160.605 C 268.992 162.285,268.402 162.488,267.227 160.838 C 266.347 159.602,266.216 159.197,266.700 159.205 C 266.865 159.208,267.407 159.838,267.904 160.605 M125.700 162.700 C 124.985 163.510,124.400 164.326,124.400 164.514 C 124.400 165.025,126.741 163.257,127.201 162.398 C 128.133 160.657,127.368 160.810,125.700 162.700 M122.641 166.639 C 120.966 168.314,121.083 169.267,122.778 167.756 C 123.717 166.920,124.675 165.200,124.203 165.200 C 124.135 165.200,123.432 165.848,122.641 166.639 M273.600 167.967 C 273.600 168.169,273.721 168.664,273.868 169.067 C 274.123 169.765,274.094 169.764,273.277 169.047 C 272.805 168.632,272.515 168.137,272.633 167.947 C 272.917 167.487,273.600 167.502,273.600 167.967 M119.000 171.043 C 118.120 172.045,117.332 173.053,117.249 173.284 C 117.167 173.514,116.402 174.422,115.549 175.300 C 114.697 176.178,114.000 177.073,114.000 177.288 C 114.000 177.503,113.460 178.183,112.800 178.800 C 112.140 179.417,111.600 180.119,111.600 180.360 C 111.600 180.602,110.880 181.541,110.000 182.448 C 109.120 183.355,108.400 184.256,108.400 184.452 C 108.400 184.647,107.860 185.372,107.200 186.063 C 106.540 186.754,106.000 187.496,106.000 187.712 C 106.000 187.929,105.676 188.397,105.281 188.753 C 104.886 189.109,104.125 190.030,103.592 190.800 C 103.058 191.570,102.304 192.547,101.915 192.971 C 101.526 193.395,101.291 193.824,101.392 193.925 C 101.745 194.278,103.641 192.748,104.101 191.738 C 104.357 191.177,105.174 190.061,105.917 189.259 C 108.758 186.191,112.800 181.265,112.800 180.870 C 112.800 180.643,113.025 180.218,113.300 179.926 C 114.745 178.391,117.601 174.803,118.497 173.400 C 119.058 172.520,119.896 171.487,120.359 171.104 C 121.166 170.436,121.523 169.188,120.900 169.211 C 120.735 169.217,119.880 170.041,119.000 171.043 M292.000 192.857 C 292.000 193.108,292.540 193.829,293.200 194.460 C 293.860 195.091,294.400 195.740,294.400 195.903 C 294.401 196.457,296.290 198.400,296.827 198.400 C 297.257 198.400,297.262 198.497,296.853 198.900 C 296.447 199.301,296.109 199.123,295.142 198.000 C 294.479 197.230,293.557 196.179,293.093 195.665 C 291.685 194.105,290.905 192.400,291.600 192.400 C 291.820 192.400,292.000 192.606,292.000 192.857 M99.700 195.810 C 98.257 197.351,98.904 197.896,100.400 196.400 C 101.202 195.598,101.462 194.779,100.900 194.824 C 100.735 194.838,100.195 195.281,99.700 195.810 M96.460 199.851 C 95.943 200.402,95.622 200.955,95.747 201.081 C 96.116 201.449,98.000 200.036,98.000 199.391 C 98.000 198.557,97.547 198.692,96.460 199.851 M298.997 201.672 C 299.549 202.152,300.000 202.868,300.000 203.263 C 300.000 203.658,300.443 204.272,300.984 204.627 C 301.526 204.981,302.092 205.660,302.242 206.136 C 302.392 206.611,302.878 207.316,303.321 207.703 C 303.765 208.089,304.003 208.530,303.850 208.683 C 303.555 208.978,301.600 207.074,301.600 206.492 C 301.600 206.304,301.060 205.632,300.400 205.000 C 299.740 204.368,299.200 203.642,299.200 203.387 C 299.200 203.132,298.840 202.598,298.400 202.200 C 296.880 200.824,297.446 200.324,298.997 201.672 M306.274 212.260 C 306.119 212.415,305.729 212.195,305.409 211.771 C 304.509 210.581,304.695 210.117,305.678 211.100 C 306.161 211.583,306.429 212.105,306.274 212.260 M318.000 228.125 C 318.000 228.330,317.730 228.274,317.400 228.000 C 317.070 227.726,316.806 227.209,316.813 226.851 C 316.827 226.125,318.000 227.384,318.000 228.125 M320.202 230.349 C 320.321 230.660,320.343 230.991,320.250 231.084 C 320.036 231.298,318.400 229.562,318.400 229.121 C 318.400 228.635,319.949 229.691,320.202 230.349 M322.384 233.275 C 322.833 233.757,323.200 234.315,323.200 234.515 C 323.200 234.715,323.765 235.407,324.455 236.051 C 325.145 236.696,325.580 237.353,325.422 237.511 C 325.263 237.670,324.595 237.170,323.935 236.400 C 323.276 235.630,322.424 234.640,322.041 234.200 C 320.452 232.374,320.764 231.536,322.384 233.275 M327.507 240.000 C 327.782 240.440,327.853 240.800,327.665 240.800 C 327.478 240.800,326.998 240.440,326.600 240.000 C 326.043 239.385,326.007 239.200,326.442 239.200 C 326.753 239.200,327.232 239.560,327.507 240.000 M329.898 243.071 C 330.487 243.624,330.562 244.400,330.027 244.400 C 329.638 244.400,328.000 242.290,328.000 241.789 C 328.000 241.513,328.853 242.088,329.898 243.071 M331.429 245.371 C 331.743 245.686,332.000 246.136,332.000 246.371 C 332.000 246.607,332.180 246.800,332.400 246.800 C 332.620 246.800,332.800 246.982,332.800 247.204 C 332.800 247.426,333.342 248.174,334.004 248.867 C 334.666 249.559,335.101 250.233,334.971 250.363 C 334.741 250.592,332.708 248.406,330.447 245.500 C 329.764 244.623,330.574 244.517,331.429 245.371 M337.112 252.808 C 337.384 253.243,337.491 253.600,337.350 253.600 C 337.104 253.600,335.600 252.011,335.600 251.751 C 335.600 251.370,336.689 252.131,337.112 252.808 M341.600 259.000 C 341.600 259.330,341.439 259.600,341.243 259.600 C 341.046 259.600,340.782 259.330,340.655 259.000 C 340.515 258.635,340.655 258.400,341.013 258.400 C 341.336 258.400,341.600 258.670,341.600 259.000 M348.000 272.224 C 348.000 272.541,347.820 272.800,347.600 272.800 C 347.380 272.800,347.200 272.429,347.200 271.976 C 347.200 271.523,347.380 271.264,347.600 271.400 C 347.820 271.536,348.000 271.907,348.000 272.224 M348.630 291.103 C 348.147 291.586,347.918 290.791,348.230 289.719 L 348.555 288.600 348.708 289.737 C 348.792 290.362,348.757 290.977,348.630 291.103 M343.462 304.997 C 343.208 305.545,342.865 305.995,342.700 305.997 C 342.277 306.001,342.325 305.709,342.896 304.795 C 343.603 303.663,344.013 303.810,343.462 304.997 M316.800 323.400 C 316.800 323.797,316.403 324.000,315.624 324.000 C 314.283 324.000,313.633 323.354,314.695 323.077 C 316.111 322.707,316.800 322.813,316.800 323.400 M310.200 324.400 C 310.336 324.620,310.066 324.800,309.600 324.800 C 309.134 324.800,308.864 324.620,309.000 324.400 C 309.136 324.180,309.406 324.000,309.600 324.000 C 309.794 324.000,310.064 324.180,310.200 324.400 " stroke="none" fill="#cb0404" fill-rule="evenodd"></path><path id="path1" d="M197.370 85.543 C 196.909 85.946,193.083 86.800,191.741 86.800 C 191.192 86.800,190.498 87.025,190.199 87.300 C 189.900 87.575,188.518 88.427,187.128 89.193 C 184.690 90.535,178.400 96.457,178.400 97.408 C 178.400 97.644,177.680 98.541,176.800 99.400 C 175.920 100.259,175.200 101.194,175.200 101.478 C 175.200 101.761,174.830 102.220,174.377 102.497 C 173.925 102.773,173.173 103.630,172.706 104.400 C 171.924 105.690,170.807 107.090,167.599 110.800 C 166.933 111.570,166.052 112.756,165.640 113.435 C 165.227 114.115,164.420 115.041,163.845 115.493 C 163.270 115.945,162.800 116.535,162.800 116.803 C 162.800 117.379,161.283 119.350,158.847 121.937 C 157.883 122.962,156.382 124.925,155.511 126.300 C 154.641 127.675,153.788 128.800,153.617 128.800 C 153.446 128.800,152.807 129.565,152.196 130.500 C 151.585 131.435,150.840 132.470,150.540 132.800 C 150.240 133.130,149.144 134.570,148.105 136.000 C 147.065 137.430,145.984 138.841,145.701 139.135 C 145.419 139.429,144.696 140.329,144.094 141.135 C 143.492 141.941,142.802 142.780,142.560 143.000 C 142.318 143.220,141.598 144.111,140.960 144.979 C 140.322 145.848,139.390 147.004,138.890 147.549 C 138.389 148.094,137.579 149.082,137.090 149.746 C 136.600 150.410,135.525 151.638,134.700 152.476 C 133.875 153.314,133.200 154.170,133.200 154.379 C 133.200 154.588,132.750 155.244,132.200 155.838 C 131.650 156.431,131.200 156.766,131.200 156.582 C 131.200 155.964,130.026 157.792,130.013 158.430 C 129.997 159.196,128.249 160.915,127.870 160.537 C 127.722 160.388,127.600 160.673,127.600 161.169 C 127.600 162.051,124.272 165.738,123.853 165.320 C 123.744 165.210,123.743 165.459,123.851 165.873 C 124.053 166.645,121.911 168.978,121.437 168.504 C 121.307 168.373,121.200 168.748,121.200 169.337 C 121.200 169.938,120.831 170.713,120.359 171.104 C 119.896 171.487,119.058 172.520,118.497 173.400 C 117.601 174.803,114.745 178.391,113.300 179.926 C 113.025 180.218,112.800 180.643,112.800 180.870 C 112.800 181.265,108.758 186.191,105.917 189.259 C 105.174 190.061,104.349 191.194,104.083 191.777 C 103.818 192.360,103.061 193.144,102.403 193.519 C 101.744 193.893,101.204 194.515,101.203 194.900 C 101.200 195.620,100.387 196.555,98.866 197.588 C 98.390 197.912,98.000 198.583,98.000 199.079 C 98.000 199.626,97.567 200.259,96.900 200.686 C 95.222 201.760,94.750 202.317,94.880 203.071 C 94.953 203.489,94.496 204.081,93.715 204.580 C 92.957 205.064,92.425 205.742,92.415 206.236 C 92.407 206.695,91.770 207.645,91.000 208.345 C 90.230 209.046,89.600 209.818,89.600 210.061 C 89.600 210.485,88.752 211.579,85.500 215.350 C 84.675 216.307,84.000 217.259,84.000 217.467 C 84.000 217.674,83.415 218.494,82.700 219.289 C 81.985 220.084,80.770 221.565,80.000 222.581 C 76.795 226.809,75.320 228.619,73.900 230.068 C 73.075 230.910,72.400 231.807,72.400 232.061 C 72.400 232.315,71.676 233.143,70.791 233.900 C 69.907 234.658,69.232 235.566,69.291 235.918 C 69.352 236.278,68.839 236.920,68.123 237.380 C 67.421 237.831,66.735 238.682,66.598 239.272 C 66.461 239.862,65.730 240.816,64.974 241.392 C 64.218 241.969,63.600 242.696,63.600 243.007 C 63.600 243.318,62.835 244.461,61.900 245.546 C 60.349 247.345,57.634 250.862,55.278 254.124 C 54.771 254.826,54.051 255.761,53.678 256.201 C 50.747 259.665,48.617 263.271,46.710 268.000 C 46.488 268.550,46.148 269.313,45.953 269.695 C 45.759 270.077,45.600 270.831,45.600 271.371 C 45.600 271.911,45.440 272.452,45.244 272.573 C 44.238 273.194,43.410 288.628,44.278 290.561 C 44.565 291.200,44.800 292.225,44.800 292.838 C 44.800 293.451,44.980 294.064,45.200 294.200 C 45.420 294.336,45.600 294.966,45.600 295.600 C 45.600 296.234,45.780 296.864,46.000 297.000 C 46.220 297.136,46.400 297.518,46.400 297.849 C 46.400 300.210,53.155 310.772,56.347 313.400 C 56.881 313.840,58.219 314.959,59.320 315.887 C 61.237 317.502,63.708 318.981,67.600 320.843 C 68.590 321.317,69.713 321.861,70.095 322.052 C 70.477 322.243,71.141 322.400,71.571 322.400 C 72.001 322.400,72.464 322.580,72.600 322.800 C 72.736 323.020,73.242 323.206,73.724 323.213 C 74.206 323.220,74.930 323.476,75.334 323.782 C 75.773 324.114,76.579 324.257,77.334 324.137 C 78.082 324.017,79.091 324.193,79.800 324.565 C 80.874 325.129,86.397 325.195,132.400 325.197 C 192.664 325.199,211.004 324.887,202.275 324.009 L 200.200 323.800 200.103 205.010 C 200.050 139.675,199.960 86.108,199.903 85.972 C 199.723 85.539,197.756 85.206,197.370 85.543 M201.800 86.800 C 201.936 87.020,202.487 87.200,203.024 87.200 C 203.561 87.200,204.000 87.020,204.000 86.800 C 204.000 86.580,203.449 86.400,202.776 86.400 C 202.063 86.400,201.656 86.567,201.800 86.800 M225.600 105.029 C 225.600 105.327,226.675 106.400,226.975 106.400 C 227.102 106.400,226.982 106.040,226.707 105.600 C 226.238 104.849,225.600 104.520,225.600 105.029 M228.013 108.300 C 228.042 108.985,229.132 110.033,229.387 109.621 C 229.532 109.386,229.382 108.925,229.054 108.597 C 228.403 107.946,227.993 107.829,228.013 108.300 M230.400 111.538 C 230.400 111.724,230.760 112.202,231.200 112.600 C 231.654 113.011,232.000 113.124,232.000 112.862 C 232.000 112.608,231.820 112.400,231.600 112.400 C 231.380 112.400,231.200 112.130,231.200 111.800 C 231.200 111.470,231.020 111.200,230.800 111.200 C 230.580 111.200,230.400 111.352,230.400 111.538 M234.400 117.023 C 234.400 117.546,235.256 118.800,235.614 118.800 C 236.297 118.800,236.025 117.808,235.200 117.293 C 234.760 117.018,234.400 116.897,234.400 117.023 M236.493 120.000 C 236.998 120.808,237.600 121.069,237.600 120.480 C 237.600 120.064,236.733 119.200,236.317 119.200 C 236.139 119.200,236.218 119.560,236.493 120.000 M239.692 124.075 C 239.891 124.673,240.800 125.002,240.800 124.476 C 240.800 124.261,240.515 123.976,240.167 123.843 C 239.777 123.693,239.594 123.782,239.692 124.075 M244.400 130.800 C 244.635 131.240,245.002 131.600,245.214 131.600 C 245.849 131.600,245.650 130.505,244.967 130.243 C 244.001 129.872,243.937 129.935,244.400 130.800 M246.388 133.178 C 246.879 134.095,247.557 134.576,247.891 134.243 C 248.021 134.112,247.712 133.644,247.203 133.203 C 246.044 132.197,245.860 132.192,246.388 133.178 M253.900 143.278 C 254.383 143.761,254.894 144.039,255.037 143.897 C 255.372 143.561,254.212 142.400,253.540 142.400 C 253.226 142.400,253.368 142.745,253.900 143.278 M256.000 145.767 C 256.000 146.188,257.205 147.328,257.421 147.112 C 257.522 147.011,257.244 146.602,256.802 146.202 C 256.361 145.803,256.000 145.607,256.000 145.767 M260.800 152.167 C 260.800 152.588,262.005 153.728,262.221 153.512 C 262.322 153.411,262.044 153.002,261.602 152.602 C 261.161 152.203,260.800 152.007,260.800 152.167 M263.426 155.158 C 263.059 155.751,264.209 157.124,264.679 156.654 C 264.843 156.491,264.784 156.231,264.548 156.078 C 264.313 155.925,264.036 155.539,263.933 155.220 C 263.784 154.757,263.681 154.745,263.426 155.158 M266.400 159.438 C 266.400 159.905,268.061 162.000,268.431 162.000 C 268.638 162.000,268.401 161.372,267.904 160.605 C 267.088 159.345,266.400 158.812,266.400 159.438 M270.006 163.986 C 270.030 164.829,270.820 165.370,271.194 164.800 C 271.761 163.936,271.698 163.771,270.800 163.771 C 270.360 163.771,270.003 163.868,270.006 163.986 M272.633 167.947 C 272.515 168.137,272.805 168.632,273.277 169.047 C 274.094 169.764,274.123 169.765,273.868 169.067 C 273.721 168.664,273.600 168.169,273.600 167.967 C 273.600 167.502,272.917 167.487,272.633 167.947 M291.200 192.554 C 291.200 192.958,292.338 194.829,293.093 195.665 C 293.557 196.179,294.479 197.230,295.142 198.000 C 296.109 199.123,296.447 199.301,296.853 198.900 C 297.262 198.497,297.257 198.400,296.827 198.400 C 296.290 198.400,294.401 196.457,294.400 195.903 C 294.400 195.740,293.860 195.091,293.200 194.460 C 292.540 193.829,292.000 193.108,292.000 192.857 C 292.000 192.606,291.820 192.400,291.600 192.400 C 291.380 192.400,291.200 192.469,291.200 192.554 M297.600 201.138 C 297.600 201.324,297.960 201.802,298.400 202.200 C 298.840 202.598,299.200 203.132,299.200 203.387 C 299.200 203.642,299.740 204.368,300.400 205.000 C 301.060 205.632,301.600 206.304,301.600 206.492 C 301.600 207.074,303.555 208.978,303.850 208.683 C 304.003 208.530,303.765 208.089,303.321 207.703 C 302.878 207.316,302.392 206.611,302.242 206.136 C 302.092 205.660,301.526 204.981,300.984 204.627 C 300.443 204.272,300.000 203.658,300.000 203.263 C 300.000 202.868,299.549 202.152,298.997 201.672 C 297.914 200.730,297.600 200.610,297.600 201.138 M304.813 210.611 C 304.834 211.271,305.975 212.558,306.274 212.260 C 306.429 212.105,306.161 211.583,305.678 211.100 C 305.195 210.617,304.806 210.397,304.813 210.611 M316.813 226.851 C 316.806 227.209,317.070 227.726,317.400 228.000 C 318.169 228.638,318.177 227.987,317.413 226.976 C 316.919 226.324,316.823 226.304,316.813 226.851 M318.400 229.121 C 318.400 229.562,320.036 231.298,320.250 231.084 C 320.343 230.991,320.321 230.660,320.202 230.349 C 319.949 229.691,318.400 228.635,318.400 229.121 M321.049 232.900 C 321.212 233.175,321.658 233.760,322.041 234.200 C 322.424 234.640,323.276 235.630,323.935 236.400 C 324.595 237.170,325.263 237.670,325.422 237.511 C 325.580 237.353,325.145 236.696,324.455 236.051 C 323.765 235.407,323.200 234.715,323.200 234.515 C 323.200 234.004,321.654 232.400,321.161 232.400 C 320.936 232.400,320.886 232.625,321.049 232.900 M326.600 240.000 C 326.998 240.440,327.478 240.800,327.665 240.800 C 327.853 240.800,327.782 240.440,327.507 240.000 C 327.232 239.560,326.753 239.200,326.442 239.200 C 326.007 239.200,326.043 239.385,326.600 240.000 M328.000 241.789 C 328.000 242.290,329.638 244.400,330.027 244.400 C 330.562 244.400,330.487 243.624,329.898 243.071 C 328.853 242.088,328.000 241.513,328.000 241.789 M330.447 245.500 C 332.708 248.406,334.741 250.592,334.971 250.363 C 335.101 250.233,334.666 249.559,334.004 248.867 C 333.342 248.174,332.800 247.426,332.800 247.204 C 332.800 246.982,332.620 246.800,332.400 246.800 C 332.180 246.800,332.000 246.607,332.000 246.371 C 332.000 245.796,330.973 244.800,330.380 244.800 C 330.035 244.800,330.054 244.995,330.447 245.500 M335.600 251.751 C 335.600 252.011,337.104 253.600,337.350 253.600 C 337.761 253.600,336.669 252.035,336.109 251.820 C 335.829 251.713,335.600 251.682,335.600 251.751 M340.655 259.000 C 340.782 259.330,341.046 259.600,341.243 259.600 C 341.439 259.600,341.600 259.330,341.600 259.000 C 341.600 258.670,341.336 258.400,341.013 258.400 C 340.655 258.400,340.515 258.635,340.655 259.000 M347.200 271.976 C 347.200 272.429,347.380 272.800,347.600 272.800 C 347.820 272.800,348.000 272.541,348.000 272.224 C 348.000 271.907,347.820 271.536,347.600 271.400 C 347.380 271.264,347.200 271.523,347.200 271.976 M348.230 289.719 C 348.051 290.334,348.016 290.949,348.152 291.085 C 348.600 291.533,348.863 290.894,348.708 289.737 L 348.555 288.600 348.230 289.719 M342.896 304.795 C 342.325 305.709,342.277 306.001,342.700 305.997 C 342.865 305.995,343.208 305.545,343.462 304.997 C 344.013 303.810,343.603 303.663,342.896 304.795 M314.695 323.077 C 313.633 323.354,314.283 324.000,315.624 324.000 C 316.403 324.000,316.800 323.797,316.800 323.400 C 316.800 322.813,316.111 322.707,314.695 323.077 M309.000 324.400 C 308.864 324.620,309.134 324.800,309.600 324.800 C 310.066 324.800,310.336 324.620,310.200 324.400 C 310.064 324.180,309.794 324.000,309.600 324.000 C 309.406 324.000,309.136 324.180,309.000 324.400 " stroke="none" fill="#a30404" fill-rule="evenodd"></path></g></svg>