<?xml version="1.0" encoding="UTF-8"?>
<svg version="1.1" xmlns="http://www.w3.org/2000/svg" width="64" height="64">
<path d="M0 0 C6.12274216 3.14913382 10.05196347 7.5230779 12.25390625 14.12890625 C13.04912625 22.9672085 12.94523543 30.04911271 7.25390625 37.12890625 C5.34229005 39.22048632 3.37550203 41.19459851 1.30859375 43.1328125 C-1.41403591 45.77780063 -3.75039104 48.68772807 -6.10546875 51.66015625 C-7.74609375 53.12890625 -7.74609375 53.12890625 -11.74609375 53.12890625 C-13.49780273 51.80297852 -13.49780273 51.80297852 -15.2421875 49.9453125 C-15.88349609 49.26404297 -16.52480469 48.58277344 -17.18554688 47.88085938 C-17.84490234 47.15833984 -18.50425781 46.43582031 -19.18359375 45.69140625 C-19.83908203 45.00369141 -20.49457031 44.31597656 -21.16992188 43.60742188 C-27.26999279 37.03011372 -32.47903739 30.45523706 -32.37109375 21.12890625 C-32.1162757 14.74468112 -30.92253019 10.03439643 -26.74609375 5.12890625 C-19.35048686 -1.58701685 -9.5178628 -3.01917981 0 0 Z M-16.24609375 14.62890625 C-18.36762759 18.16479598 -18.53710675 21.10792348 -17.74609375 25.12890625 C-16.41276042 27.79557292 -16.41276042 27.79557292 -13.74609375 29.12890625 C-9.72511098 29.91991925 -6.78198348 29.75044009 -3.24609375 27.62890625 C-1.12455991 24.09301652 -0.95508075 21.14988902 -1.74609375 17.12890625 C-3.07942708 14.46223958 -3.07942708 14.46223958 -5.74609375 13.12890625 C-9.76707652 12.33789325 -12.71020402 12.50737241 -16.24609375 14.62890625 Z " fill="#218BE6" transform="translate(41.74609375,6.87109375)"/>
</svg>
