<?xml version="1.0"?>
<svg width="400.667" height="400.666" xmlns="http://www.w3.org/2000/svg" xmlns:svg="http://www.w3.org/2000/svg" enable-background="new 0 0 400.667 400.666" version="1.1" xml:space="preserve">
 <g class="layer">
  <title>Layer 1</title>
  <circle cx="200.33" cy="200" fill="#232323" id="svg_1" r="161" transform="matrix(1 0 0 1 0 0)"/>
  <path d="m57.4,175.09c-13.43,76.14 34.07,139.89 92.42,160.91" fill="none" id="svg_2" stroke="#F9FF00" stroke-miterlimit="10" stroke-width="10"/>
  <path d="m106.85,89.04c-28.11,23.59 -44,55.34 -49.51,86.37" fill="none" id="svg_3" stroke="#FF0000" stroke-miterlimit="10" stroke-width="10"/>
  <path d="m151.63,336.66c40.37,14.45 85.52,10.28 121.51,-10.49c62.8,-36.26 97.12,-122.44 53.19,-198.53" fill="none" id="svg_4" stroke="#007511" stroke-miterlimit="10" stroke-width="10"/>
  <line fill="none" id="svg_5" stroke="#FFFFFF" stroke-miterlimit="10" stroke-width="4" x1="296.81" x2="281.75" y1="85.02" y2="102.97"/>
  <line fill="none" id="svg_6" stroke="#FFFFFF" stroke-miterlimit="10" stroke-width="4" x1="310.03" x2="330.32" y1="136.67" y2="124.95"/>
  <line fill="none" id="svg_7" stroke="#FFFFFF" stroke-miterlimit="10" stroke-width="4" x1="348.15" x2="325.08" y1="173.94" y2="178.01"/>
  <line fill="none" id="svg_8" stroke="#FFFFFF" stroke-miterlimit="10" stroke-width="4" x1="348.15" x2="325.08" y1="226.06" y2="222"/>
  <line fill="none" id="svg_9" stroke="#FFFFFF" stroke-miterlimit="10" stroke-width="4" x1="330.32" x2="310.03" y1="275.05" y2="263.34"/>
  <line fill="none" id="svg_10" stroke="#FFFFFF" stroke-miterlimit="10" stroke-width="4" x1="296.81" x2="281.75" y1="314.98" y2="297.04"/>
  <line fill="none" id="svg_11" stroke="#FFFFFF" stroke-miterlimit="10" stroke-width="4" x1="251.67" x2="243.66" y1="341.05" y2="319.03"/>
  <line fill="none" id="svg_12" stroke="#FFFFFF" stroke-miterlimit="10" stroke-width="4" x1="200.33" x2="200.33" y1="350.1" y2="326.67"/>
  <line fill="none" id="svg_13" stroke="#FFFFFF" stroke-miterlimit="10" stroke-width="4" x1="149" x2="157.01" y1="341.05" y2="319.03"/>
  <line fill="none" id="svg_14" stroke="#FFFFFF" stroke-miterlimit="10" stroke-width="4" x1="103.85" x2="118.91" y1="314.98" y2="297.03"/>
  <line fill="none" id="svg_15" stroke="#FFFFFF" stroke-miterlimit="10" stroke-width="4" x1="70.34" x2="90.63" y1="275.05" y2="263.33"/>
  <line fill="none" id="svg_16" stroke="#FFFFFF" stroke-miterlimit="10" stroke-width="4" x1="52.52" x2="75.59" y1="226.06" y2="222"/>
  <line fill="none" id="svg_17" stroke="#FFFFFF" stroke-miterlimit="10" stroke-width="4" x1="52.52" x2="75.59" y1="173.93" y2="178"/>
  <line fill="none" id="svg_18" stroke="#FFFFFF" stroke-miterlimit="10" stroke-width="4" x1="70.35" x2="90.64" y1="124.95" y2="136.67"/>
  <line fill="none" id="svg_19" stroke="#FFFFFF" stroke-miterlimit="10" stroke-width="4" x1="103.85" x2="118.91" y1="85.02" y2="102.97"/>
  <line fill="none" id="svg_20" stroke="#FFFFFF" stroke-miterlimit="10" stroke-width="2" x1="315.31" x2="303.07" y1="103.52" y2="113.8"/>
  <line fill="none" id="svg_21" stroke="#FFFFFF" stroke-miterlimit="10" stroke-width="4" x1="251.67" x2="243.66" y1="58.96" y2="80.97"/>
  <line fill="none" id="svg_22" stroke="#FFFFFF" stroke-miterlimit="10" stroke-width="2" x1="275.38" x2="267.39" y1="70.02" y2="83.86"/>
  <line fill="none" id="svg_23" stroke="#FFFFFF" stroke-miterlimit="10" stroke-width="4" x1="200.33" x2="200.33" y1="49.9" y2="73.33"/>
  <line fill="none" id="svg_24" stroke="#FFFFFF" stroke-miterlimit="10" stroke-width="2" x1="226.4" x2="223.63" y1="52.19" y2="67.92"/>
  <line fill="none" id="svg_25" stroke="#FFFFFF" stroke-miterlimit="10" stroke-width="2" x1="213.42" x2="212.44" y1="50.48" y2="61.62"/>
  <line fill="none" id="svg_26" stroke="#FFFFFF" stroke-miterlimit="10" stroke-width="2" x1="239.18" x2="236.29" y1="55.02" y2="65.82"/>
  <line fill="none" id="svg_27" stroke="#FFFFFF" stroke-miterlimit="10" stroke-width="2" x1="263.77" x2="259.04" y1="63.97" y2="74.11"/>
  <line fill="none" id="svg_28" stroke="#FFFFFF" stroke-miterlimit="10" stroke-width="2" x1="286.42" x2="280.01" y1="77.05" y2="86.21"/>
  <line fill="none" id="svg_29" stroke="#FFFFFF" stroke-miterlimit="10" stroke-width="2" x1="341.38" x2="326.36" y1="148.67" y2="154.14"/>
  <line fill="none" id="svg_30" stroke="#FFFFFF" stroke-miterlimit="10" stroke-width="2" x1="350.43" x2="334.45" y1="200" y2="200.01"/>
  <line fill="none" id="svg_31" stroke="#FFFFFF" stroke-miterlimit="10" stroke-width="2" x1="341.38" x2="326.36" y1="251.34" y2="245.88"/>
  <line fill="none" id="svg_32" stroke="#FFFFFF" stroke-miterlimit="10" stroke-width="2" x1="315.31" x2="303.07" y1="296.48" y2="286.21"/>
  <line fill="none" id="svg_33" stroke="#FFFFFF" stroke-miterlimit="10" stroke-width="2" x1="275.38" x2="267.38" y1="329.99" y2="316.15"/>
  <line fill="none" id="svg_34" stroke="#FFFFFF" stroke-miterlimit="10" stroke-width="2" x1="226.4" x2="223.62" y1="347.82" y2="332.08"/>
  <line fill="none" id="svg_35" stroke="#FFFFFF" stroke-miterlimit="10" stroke-width="2" x1="174.27" x2="177.04" y1="347.82" y2="332.08"/>
  <line fill="none" id="svg_36" stroke="#FFFFFF" stroke-miterlimit="10" stroke-width="2" x1="125.28" x2="133.27" y1="329.99" y2="316.14"/>
  <line fill="none" id="svg_37" stroke="#FFFFFF" stroke-miterlimit="10" stroke-width="2" x1="85.35" x2="97.59" y1="296.48" y2="286.2"/>
  <line fill="none" id="svg_38" stroke="#FFFFFF" stroke-miterlimit="10" stroke-width="2" x1="59.29" x2="74.3" y1="251.34" y2="245.86"/>
  <line fill="none" id="svg_39" stroke="#FFFFFF" stroke-miterlimit="10" stroke-width="2" x1="50.23" x2="66.22" y1="200" y2="199.99"/>
  <line fill="none" id="svg_40" stroke="#FFFFFF" stroke-miterlimit="10" stroke-width="2" x1="59.29" x2="74.31" y1="148.66" y2="154.13"/>
  <line fill="none" id="svg_41" stroke="#FFFFFF" stroke-miterlimit="10" stroke-width="2" x1="85.35" x2="97.6" y1="103.52" y2="113.79"/>
  <text fill="#FFFFFF" font-family="sans-serif" font-size="20" id="svg_42" stroke="#FFFFFF" stroke-miterlimit="10" stroke-width="0.5" transform="matrix(1 0 0 1 257.6592 123.6489)">20</text>
  <text fill="#FFFFFF" font-family="sans-serif" font-size="20" id="svg_43" stroke="#FFFFFF" stroke-miterlimit="10" stroke-width="0.5" transform="matrix(1 0 0 1 292.1592 187.1489)">40</text>
  <text fill="#FFFFFF" font-family="sans-serif" font-size="20" id="svg_44" stroke="#FFFFFF" stroke-miterlimit="10" stroke-width="0.5" transform="matrix(1 0 0 1 267.3848 263.3359)">60</text>
  <text fill="#FFFFFF" font-family="sans-serif" font-size="20" id="svg_45" stroke="#FFFFFF" stroke-miterlimit="10" stroke-width="0.5" transform="matrix(1 0 0 1 225.0059 302.1489)">80</text>
  <text fill="#FFFFFF" font-family="sans-serif" font-size="20" id="svg_46" stroke="#FFFFFF" stroke-miterlimit="10" stroke-width="0.5" transform="matrix(1 0 0 1 153.0015 302.1489)">100</text>
  <text fill="#FFFFFF" font-family="sans-serif" font-size="20" id="svg_47" stroke="#FFFFFF" stroke-miterlimit="10" stroke-width="0.5" transform="matrix(1 0 0 1 107.1592 256.6489)">120</text>
  <text fill="#FFFFFF" font-family="sans-serif" font-size="20" id="svg_48" stroke="#FFFFFF" stroke-miterlimit="10" stroke-width="0.5" transform="matrix(1 0 0 1 91.4746 184.6489)">140</text>
  <text fill="#FFFFFF" font-family="sans-serif" font-size="20" id="svg_49" stroke="#FFFFFF" stroke-miterlimit="10" stroke-width="0.5" transform="matrix(1 0 0 1 125.2837 123.6489)">160</text>
  <text fill="#FFFFFF" font-family="sans-serif" font-size="14" id="svg_50" stroke="#FFFFFF" stroke-miterlimit="10" stroke-width="0.5" transform="matrix(1 0 0 1 175.38 242.189)" x="6.68" y="-2.5">KM / H</text>
  <text fill="#FFFFFF" font-family="sans-serif" font-size="14" id="svg_51" stroke="#FFFFFF" stroke-miterlimit="10" stroke-width="0.5" transform="matrix(1 0 0 1 0 0) matrix(1 0 0 1 161.309 165.189)" x="-14.19" y="-1.67">GROUND SPEED</text>
  <text fill="#FFFFFF" font-family="sans-serif" font-size="20" id="svg_52" stroke="#FFFFFF" stroke-miterlimit="10" stroke-width="0.5" transform="matrix(1 0 0 1 194.6592 99.6489)">0</text>
 </g>
</svg>